<?xml version="1.0" encoding="utf-8"?>
<!-- Generator: Adobe Illustrator 24.1.1, SVG Export Plug-In . SVG Version: 6.00 Build 0)  -->
<svg version="1.1"
	 id="svg821" inkscape:version="0.92.4 (5da689c313, 2019-01-14)" sodipodi:docname="business-card-front.svg" xmlns:cc="http://creativecommons.org/ns#" xmlns:dc="http://purl.org/dc/elements/1.1/" xmlns:inkscape="http://www.inkscape.org/namespaces/inkscape" xmlns:rdf="http://www.w3.org/1999/02/22-rdf-syntax-ns#" xmlns:sodipodi="http://sodipodi.sourceforge.net/DTD/sodipodi-0.dtd" xmlns:svg="http://www.w3.org/2000/svg"
	 xmlns="http://www.w3.org/2000/svg" xmlns:xlink="http://www.w3.org/1999/xlink" x="0px" y="0px" viewBox="0 0 252 144"
	 style="enable-background:new 0 0 252 144;" xml:space="preserve">
<style type="text/css">
	.st0{fill:#818181;stroke:#000000;stroke-width:0.5;stroke-miterlimit:11.3386;}
	.st1{fill:#9955FF;stroke:#000000;stroke-width:0.5;stroke-linecap:round;stroke-miterlimit:11.3386;}
	.st2{enable-background:new    ;}
	.st3{stroke:#000000;stroke-width:0.2;stroke-miterlimit:10;}
	.st4{fill:none;}
	.st5{fill:#FF0088;stroke:#000000;stroke-width:0.25;stroke-linecap:round;stroke-linejoin:round;stroke-miterlimit:11.3386;}
	.st6{font-family:'Comfortaa-Regular';}
	.st7{font-size:14px;}
	.st8{fill:none;stroke:#000000;stroke-width:0.25;stroke-miterlimit:10;}
</style>
<sodipodi:namedview  bordercolor="#666666" borderopacity="1.0" id="base" inkscape:current-layer="layer1" inkscape:cx="168.95076" inkscape:cy="111.62851" inkscape:document-units="mm" inkscape:pageopacity="0.0" inkscape:pageshadow="2" inkscape:window-height="837" inkscape:window-maximized="1" inkscape:window-width="1600" inkscape:window-x="-8" inkscape:window-y="-8" inkscape:zoom="1.979899" pagecolor="#ffffff" showgrid="false" showguides="false" units="in">
	</sodipodi:namedview>
<g id="layer1" transform="translate(0,-246.19997)" inkscape:groupmode="layer" inkscape:label="Layer 1">
	<path id="path1378" inkscape:connector-curvature="0" class="st0" d="M77.6,295.8c6,0.8,6.4,4.6,6.4,7v12.8
		c-0.5,4.6-3.4,5.9-6.4,6.2H49.5c6.1-3.1,9.3-7.1,11.2-11.6h12.8c2.9-0.1,2.6-4.1,0-4.1H61.9c2.3-7.5-0.9-20.6-11.9-25.2h29.6
		c6.7,0.6,6,10.3,0,10.9h-11c-1.9,0-2.6,3.7,0,4.1L77.6,295.8L77.6,295.8z"/>
	<path id="path1380" inkscape:connector-curvature="0" class="st1" d="M38.6,280.2c-11.6,0-21,9.4-21,21s9.4,21,21,21l0,0
		c11.6,0,21-9.4,21-21S50.2,280.2,38.6,280.2L38.6,280.2z M38.8,297.6c1.9,0,3.4,1.5,3.4,3.4s-1.5,3.4-3.4,3.4s-3.4-1.5-3.4-3.4l0,0
		C35.4,299.1,36.9,297.6,38.8,297.6z"/>
	<g>
		<g class="st2">
			<g>
				<g>
					<path class="st3" d="M18,351.5c0-0.5,0.3-0.7,0.8-0.7c0.4,0,0.8,0.3,0.8,0.7c0,0.4-0.3,0.7-0.8,0.7C18.3,352.3,18,352,18,351.5
						z M18.2,353.7h1.2v6.8h-1.2V353.7z"/>
					<path class="st3" d="M21.6,353.7h1l0.1,1h0c0.6-0.6,1.3-1.2,2.3-1.2c1.4,0,2.1,0.9,2.1,2.7v4.3h-1.2v-4.2
						c0-1.3-0.4-1.8-1.3-1.8c-0.7,0-1.2,0.4-1.9,1v4.9h-1.2V353.7z"/>
					<path class="st3" d="M28.5,353.7l1-0.1h2.5v0.9h-3.5V353.7z M29.5,352.6c0-1.4,0.6-2.3,2-2.3c0.4,0,0.8,0.1,1.1,0.2l-0.2,0.9
						c-0.3-0.1-0.5-0.2-0.8-0.2c-0.6,0-1,0.4-1,1.3v7.9h-1.2V352.6z"/>
					<path class="st3" d="M32.9,357.1c0-2.3,1.5-3.6,3.2-3.6c1.7,0,3.2,1.3,3.2,3.6c0,2.3-1.5,3.6-3.2,3.6
						C34.3,360.6,32.9,359.3,32.9,357.1z M38,357.1c0-1.6-0.8-2.6-2-2.6c-1.2,0-2,1.1-2,2.6s0.8,2.6,2,2.6
						C37.2,359.7,38,358.6,38,357.1z"/>
					<path class="st3" d="M40.5,357.6c0-3.7,2.7-6.2,5.8-6.2c2.8,0,4.6,1.9,4.6,4.6c0,2.4-1.5,3.7-2.8,3.7c-0.8,0-1.4-0.4-1.5-1.1h0
						c-0.5,0.5-1.1,1-1.7,1c-1,0-1.7-0.7-1.7-2c0-1.5,1.1-3.3,2.7-3.3c0.5,0,0.9,0.2,1.1,0.7h0l0.2-0.6H48l-0.5,2.8
						c-0.3,1.1,0,1.6,0.8,1.6c0.9,0,1.9-1.1,1.9-2.9c0-2.3-1.3-3.9-3.9-3.9c-2.5,0-4.9,2.1-4.9,5.4c0,2.7,1.8,4.3,4.2,4.3
						c0.8,0,1.6-0.3,2.3-0.6l0.3,0.7c-0.8,0.5-1.7,0.7-2.7,0.7C42.7,362.6,40.5,360.9,40.5,357.6z M46.5,358.1l0.4-2.2
						c-0.3-0.4-0.5-0.6-0.9-0.6c-1.1,0-1.8,1.3-1.8,2.4c0,0.9,0.4,1.3,1,1.3C45.6,358.9,46,358.6,46.5,358.1z"/>
					<path class="st3" d="M52.4,355.8c0-2.9,1.6-4.7,3.9-4.7s3.9,1.8,3.9,4.7c0,2.9-1.6,4.8-3.9,4.8S52.4,358.8,52.4,355.8z
						 M59,355.8c0-2.3-1.1-3.7-2.7-3.7s-2.7,1.4-2.7,3.7s1.1,3.8,2.7,3.8S59,358.1,59,355.8z"/>
					<path class="st3" d="M62.1,353.7h1l0.1,1h0c0.6-0.6,1.3-1.2,2.1-1.2c1,0,1.6,0.5,1.9,1.3c0.7-0.8,1.4-1.3,2.2-1.3
						c1.4,0,2.1,0.9,2.1,2.7v4.3h-1.2v-4.2c0-1.3-0.4-1.8-1.3-1.8c-0.5,0-1.1,0.3-1.7,1v4.9h-1.2v-4.2c0-1.3-0.4-1.8-1.3-1.8
						c-0.5,0-1.1,0.3-1.7,1v4.9h-1.2V353.7z"/>
					<path class="st3" d="M73.3,358.7c0-1.5,1.3-2.2,4.2-2.5c0-0.9-0.3-1.7-1.4-1.7c-0.8,0-1.5,0.4-2,0.7l-0.5-0.8
						c0.6-0.4,1.6-0.9,2.7-0.9c1.7,0,2.4,1.1,2.4,2.8v4.2h-1l-0.1-0.8h0c-0.6,0.5-1.4,1-2.3,1C74.1,360.6,73.3,359.9,73.3,358.7z
						 M77.5,358.8v-1.9c-2.3,0.3-3.1,0.8-3.1,1.7c0,0.8,0.5,1.1,1.2,1.1C76.3,359.7,76.8,359.4,77.5,358.8z"/>
					<path class="st3" d="M80.8,353.7h1l0.1,1.2h0c0.5-0.9,1.2-1.4,1.9-1.4c0.3,0,0.5,0,0.7,0.1l-0.2,1c-0.2-0.1-0.4-0.1-0.7-0.1
						c-0.6,0-1.3,0.4-1.7,1.6v4.4h-1.2V353.7z"/>
					<path class="st3" d="M85.1,359.3l0.7-0.8c0.7,0.7,1.6,1.1,2.5,1.1c1.2,0,1.9-0.6,1.9-1.5c0-0.9-0.7-1.2-1.5-1.6l-1.3-0.6
						c-0.9-0.4-1.9-1-1.9-2.4c0-1.4,1.2-2.4,2.9-2.4c1.1,0,2.1,0.5,2.7,1.1l-0.6,0.8c-0.6-0.5-1.2-0.9-2.1-0.9c-1,0-1.7,0.5-1.7,1.3
						c0,0.9,0.8,1.2,1.5,1.5l1.3,0.6c1.1,0.5,1.9,1.1,1.9,2.5c0,1.5-1.2,2.6-3.1,2.6C87,360.6,85.9,360.1,85.1,359.3z"/>
					<path class="st3" d="M93.1,350.5h1.2v2.7l0,1.4c0.6-0.6,1.3-1.1,2.3-1.1c1.4,0,2.1,0.9,2.1,2.7v4.3h-1.2v-4.2
						c0-1.3-0.4-1.8-1.3-1.8c-0.7,0-1.2,0.4-1.9,1v4.9h-1.2V350.5z"/>
					<path class="st3" d="M100.5,351.5c0-0.5,0.3-0.7,0.8-0.7c0.4,0,0.8,0.3,0.8,0.7c0,0.4-0.3,0.7-0.8,0.7
						C100.9,352.3,100.5,352,100.5,351.5z M100.7,353.7h1.2v6.8h-1.2V353.7z"/>
					<path class="st3" d="M103.4,359.7l0.6-0.8c0.6,0.5,1.2,0.8,2,0.8c0.9,0,1.3-0.5,1.3-1.1c0-0.7-0.8-1-1.6-1.3c-1-0.3-2-0.8-2-2
						c0-1.1,0.9-1.9,2.3-1.9c0.8,0,1.6,0.3,2.1,0.8l-0.6,0.7c-0.5-0.3-1-0.6-1.6-0.6c-0.9,0-1.3,0.5-1.3,1c0,0.6,0.7,0.9,1.5,1.2
						c1,0.4,2.1,0.8,2.1,2.1c0,1.1-0.9,2-2.5,2C105,360.6,104,360.2,103.4,359.7z"/>
					<path class="st3" d="M110,350.5h1.2v2.7l0,1.4c0.6-0.6,1.3-1.1,2.3-1.1c1.4,0,2.1,0.9,2.1,2.7v4.3h-1.2v-4.2
						c0-1.3-0.4-1.8-1.3-1.8c-0.7,0-1.2,0.4-1.9,1v4.9H110V350.5z"/>
					<path class="st3" d="M117.2,358.7c0-1.5,1.3-2.2,4.2-2.5c0-0.9-0.3-1.7-1.4-1.7c-0.8,0-1.5,0.4-2,0.7l-0.5-0.8
						c0.6-0.4,1.6-0.9,2.7-0.9c1.7,0,2.4,1.1,2.4,2.8v4.2h-1l-0.1-0.8h0c-0.6,0.5-1.4,1-2.3,1C118.1,360.6,117.2,359.9,117.2,358.7z
						 M121.4,358.8v-1.9c-2.3,0.3-3.1,0.8-3.1,1.7c0,0.8,0.5,1.1,1.2,1.1C120.2,359.7,120.7,359.4,121.4,358.8z"/>
					<path class="st3" d="M124.7,353.7h1l0.1,1h0c0.6-0.6,1.3-1.2,2.3-1.2c1.4,0,2.1,0.9,2.1,2.7v4.3H129v-4.2
						c0-1.3-0.4-1.8-1.3-1.8c-0.7,0-1.2,0.4-1.9,1v4.9h-1.2V353.7z"/>
					<path class="st3" d="M132.1,351.5c0-0.5,0.3-0.7,0.8-0.7c0.4,0,0.8,0.3,0.8,0.7c0,0.4-0.3,0.7-0.8,0.7
						C132.5,352.3,132.1,352,132.1,351.5z M132.4,353.7h1.2v6.8h-1.2V353.7z"/>
					<path class="st3" d="M135.6,359.8c0-0.5,0.4-0.9,0.8-0.9c0.5,0,0.8,0.4,0.8,0.9c0,0.5-0.4,0.9-0.8,0.9
						C135.9,360.6,135.6,360.3,135.6,359.8z"/>
					<path class="st3" d="M138.8,357.1c0-2.3,1.5-3.6,3.3-3.6c0.9,0,1.5,0.4,2,0.8l-0.6,0.8c-0.4-0.4-0.8-0.6-1.4-0.6
						c-1.2,0-2.1,1.1-2.1,2.6s0.9,2.6,2.1,2.6c0.6,0,1.2-0.3,1.6-0.7l0.5,0.8c-0.6,0.5-1.4,0.9-2.2,0.9
						C140.2,360.6,138.8,359.3,138.8,357.1z"/>
					<path class="st3" d="M145.2,357.1c0-2.3,1.5-3.6,3.2-3.6s3.2,1.3,3.2,3.6c0,2.3-1.5,3.6-3.2,3.6S145.2,359.3,145.2,357.1z
						 M150.3,357.1c0-1.6-0.8-2.6-2-2.6s-2,1.1-2,2.6s0.8,2.6,2,2.6S150.3,358.6,150.3,357.1z"/>
					<path class="st3" d="M153.3,353.7h1l0.1,1h0c0.6-0.6,1.3-1.2,2.1-1.2c1,0,1.6,0.5,1.9,1.3c0.7-0.8,1.4-1.3,2.2-1.3
						c1.4,0,2.1,0.9,2.1,2.7v4.3h-1.2v-4.2c0-1.3-0.4-1.8-1.3-1.8c-0.5,0-1.1,0.3-1.7,1v4.9h-1.2v-4.2c0-1.3-0.4-1.8-1.3-1.8
						c-0.5,0-1.1,0.3-1.7,1v4.9h-1.2V353.7z"/>
				</g>
			</g>
			<rect x="232.7" y="315.5" class="st4" width="24.1" height="2.6"/>
		</g>
	</g>
	<g>
		<g class="st2">
			<path d="M117.7,309.1c0-3,1.7-4.8,4.1-4.8c1.1,0,2,0.5,2.5,1.1l-0.6,0.8c-0.5-0.5-1.1-0.9-1.9-0.9c-1.7,0-2.9,1.4-2.9,3.7
				c0,2.3,1.1,3.8,2.8,3.8c0.9,0,1.5-0.4,2.1-1l0.6,0.7c-0.7,0.8-1.6,1.3-2.8,1.3C119.4,313.8,117.7,312,117.7,309.1z"/>
			<path d="M125.6,310.2c0-2.3,1.5-3.6,3.2-3.6c1.7,0,3.2,1.3,3.2,3.6c0,2.3-1.5,3.6-3.2,3.6C127.1,313.8,125.6,312.5,125.6,310.2z
				 M130.7,310.2c0-1.6-0.8-2.6-2-2.6s-2,1.1-2,2.6c0,1.6,0.8,2.6,2,2.6C129.9,312.8,130.7,311.8,130.7,310.2z"/>
			<path d="M133.7,306.8h1l0.1,1l0,0c0.6-0.6,1.3-1.1,2.3-1.1c1.4,0,2.1,0.9,2.1,2.7v4.3H138v-4.2c0-1.3-0.4-1.8-1.3-1.8
				c-0.7,0-1.2,0.4-1.9,1v4.9h-1.2L133.7,306.8L133.7,306.8z"/>
			<path d="M140.6,312.9l0.6-0.8c0.6,0.5,1.2,0.8,2,0.8c0.9,0,1.3-0.5,1.3-1.1c0-0.7-0.8-1-1.6-1.3c-1-0.3-2-0.8-2-2
				c0-1.1,0.9-1.9,2.3-1.9c0.8,0,1.6,0.3,2.1,0.8l-0.6,0.7c-0.5-0.3-1-0.6-1.6-0.6c-0.9,0-1.3,0.5-1.3,1c0,0.6,0.7,0.9,1.5,1.2
				c1,0.4,2.1,0.8,2.1,2.1c0,1.1-0.9,2-2.5,2C142.2,313.8,141.2,313.4,140.6,312.9z"/>
			<path d="M147.4,311.5v-3.8h-1v-0.9l1.1-0.1l0.1-1.9h1v1.9h1.8v0.9h-1.8v3.8c0,0.8,0.3,1.3,1.1,1.3c0.2,0,0.6-0.1,0.8-0.2l0.2,0.9
				c-0.4,0.1-0.8,0.3-1.3,0.3C147.9,313.8,147.4,312.9,147.4,311.5z"/>
			<path d="M151.9,306.8h1l0.1,1.2l0,0c0.5-0.9,1.2-1.4,1.9-1.4c0.3,0,0.5,0,0.7,0.1l-0.2,1c-0.2-0.1-0.4-0.1-0.7-0.1
				c-0.6,0-1.3,0.4-1.7,1.6v4.4h-1.2L151.9,306.8L151.9,306.8z"/>
			<path d="M156.7,311.1v-4.3h1.2v4.2c0,1.3,0.4,1.8,1.3,1.8c0.7,0,1.2-0.3,1.8-1.1v-4.8h1.2v6.8h-1l-0.1-1.1l0,0
				c-0.6,0.7-1.3,1.2-2.2,1.2C157.4,313.8,156.7,312.9,156.7,311.1z"/>
			<path d="M163.9,310.2c0-2.3,1.5-3.6,3.3-3.6c0.9,0,1.5,0.4,2,0.8l-0.6,0.8c-0.4-0.4-0.8-0.6-1.4-0.6c-1.2,0-2.1,1.1-2.1,2.6
				c0,1.6,0.9,2.6,2.1,2.6c0.6,0,1.2-0.3,1.6-0.7l0.5,0.8c-0.6,0.5-1.4,0.9-2.2,0.9C165.3,313.8,163.9,312.5,163.9,310.2z"/>
			<path d="M171,311.5v-3.8h-1v-0.9l1.1-0.1l0.1-1.9h1v1.9h1.8v0.9h-1.8v3.8c0,0.8,0.3,1.3,1.1,1.3c0.2,0,0.6-0.1,0.8-0.2l0.2,0.9
				c-0.4,0.1-0.8,0.3-1.3,0.3C171.5,313.8,171,312.9,171,311.5z"/>
			<path d="M175.3,304.7c0-0.5,0.3-0.7,0.8-0.7s0.8,0.3,0.8,0.7c0,0.4-0.3,0.7-0.8,0.7S175.3,305.1,175.3,304.7z M175.5,306.8h1.2
				v6.8h-1.2V306.8z"/>
			<path d="M178.5,310.2c0-2.3,1.5-3.6,3.2-3.6s3.2,1.3,3.2,3.6c0,2.3-1.5,3.6-3.2,3.6C180,313.8,178.5,312.5,178.5,310.2z
				 M183.6,310.2c0-1.6-0.8-2.6-2-2.6s-2,1.1-2,2.6c0,1.6,0.8,2.6,2,2.6C182.8,312.8,183.6,311.8,183.6,310.2z"/>
			<path d="M186.6,306.8h1l0.1,1l0,0c0.6-0.6,1.3-1.1,2.3-1.1c1.4,0,2.1,0.9,2.1,2.7v4.3h-1.2v-4.2c0-1.3-0.4-1.8-1.3-1.8
				c-0.7,0-1.2,0.4-1.9,1v4.9h-1.2L186.6,306.8L186.6,306.8z"/>
		</g>
	</g>
	<g>
		<g class="st2">
			<path d="M117.3,285.4h1.2l1,5c0.2,1,0.4,2,0.5,3h0.1c0.2-1,0.4-2,0.6-3l1.3-5h1.1l1.3,5c0.2,1,0.4,2,0.7,3h0.1c0.2-1,0.3-2,0.5-3
				l1-5h1.1l-1.9,9.2h-1.4l-1.4-5.5c-0.2-0.7-0.3-1.4-0.4-2.1h-0.1c-0.1,0.7-0.3,1.4-0.5,2.1l-1.4,5.5h-1.4L117.3,285.4z"/>
			<path d="M128.6,291.2c0-2.2,1.5-3.6,3.1-3.6c1.7,0,2.7,1.2,2.7,3.2c0,0.2,0,0.5-0.1,0.7h-4.6c0.1,1.4,1,2.4,2.3,2.4
				c0.7,0,1.2-0.2,1.7-0.5l0.4,0.8c-0.6,0.4-1.3,0.7-2.2,0.7C130,294.8,128.6,293.5,128.6,291.2z M133.4,290.7
				c0-1.4-0.6-2.1-1.7-2.1c-1,0-1.8,0.8-2,2.1H133.4z"/>
			<path d="M137.1,293.9L137.1,293.9l-0.1,0.7h-0.9v-10h1.2v2.7v1.2c0.6-0.5,1.4-0.9,2.1-0.9c1.8,0,2.7,1.4,2.7,3.5
				c0,2.3-1.4,3.7-2.9,3.7C138.4,294.8,137.7,294.5,137.1,293.9z M140.8,291.1c0-1.5-0.5-2.5-1.8-2.5c-0.6,0-1.2,0.3-1.8,0.9v3.6
				c0.6,0.5,1.2,0.7,1.7,0.7C140,293.8,140.8,292.8,140.8,291.1z"/>
			<path d="M146.7,285.4h2.3c2.8,0,4.3,1.6,4.3,4.6s-1.5,4.6-4.3,4.6h-2.4L146.7,285.4L146.7,285.4z M148.9,293.7
				c2.1,0,3.2-1.3,3.2-3.7s-1.1-3.6-3.2-3.6h-1v7.3L148.9,293.7L148.9,293.7z"/>
			<path d="M154.7,291.2c0-2.2,1.5-3.6,3.1-3.6c1.7,0,2.7,1.2,2.7,3.2c0,0.2,0,0.5-0.1,0.7h-4.6c0.1,1.4,1,2.4,2.3,2.4
				c0.7,0,1.2-0.2,1.7-0.5l0.4,0.8c-0.6,0.4-1.3,0.7-2.2,0.7C156.1,294.8,154.7,293.5,154.7,291.2z M159.5,290.7
				c0-1.4-0.6-2.1-1.7-2.1c-1,0-1.8,0.8-2,2.1H159.5z"/>
			<path d="M161.2,287.8h1.2l1.3,3.9c0.2,0.7,0.4,1.4,0.6,2h0.1c0.2-0.7,0.4-1.3,0.6-2l1.3-3.9h1.1l-2.4,6.8h-1.3L161.2,287.8z"/>
			<path d="M168.2,291.2c0-2.2,1.5-3.6,3.1-3.6c1.7,0,2.7,1.2,2.7,3.2c0,0.2,0,0.5-0.1,0.7h-4.6c0.1,1.4,1,2.4,2.3,2.4
				c0.7,0,1.2-0.2,1.7-0.5l0.4,0.8c-0.6,0.4-1.3,0.7-2.2,0.7C169.6,294.8,168.2,293.5,168.2,291.2z M172.9,290.7
				c0-1.4-0.6-2.1-1.7-2.1c-1,0-1.8,0.8-2,2.1H172.9z"/>
			<path d="M175.6,293.3v-8.6h1.2v8.7c0,0.4,0.2,0.5,0.3,0.5s0.1,0,0.3,0l0.2,0.9c-0.2,0.1-0.4,0.1-0.7,0.1
				C176,294.8,175.6,294.3,175.6,293.3z"/>
			<path d="M178.7,291.2c0-2.3,1.5-3.6,3.2-3.6s3.2,1.3,3.2,3.6c0,2.3-1.5,3.6-3.2,3.6C180.2,294.8,178.7,293.5,178.7,291.2z
				 M183.8,291.2c0-1.6-0.8-2.6-2-2.6s-2,1.1-2,2.6c0,1.6,0.8,2.6,2,2.6C183,293.8,183.8,292.8,183.8,291.2z"/>
			<path d="M186.8,287.8h1l0.1,0.8l0,0c0.6-0.5,1.4-1,2.2-1c1.8,0,2.7,1.4,2.7,3.5c0,2.3-1.4,3.7-2.9,3.7c-0.6,0-1.3-0.3-1.9-0.8
				v1.2v2.3h-1.2L186.8,287.8L186.8,287.8z M191.6,291.1c0-1.5-0.5-2.5-1.8-2.5c-0.6,0-1.2,0.3-1.8,0.9v3.6c0.6,0.5,1.2,0.7,1.7,0.7
				C190.7,293.8,191.6,292.8,191.6,291.1z"/>
			<path d="M194.6,287.8h1l0.1,1l0,0c0.6-0.6,1.3-1.2,2.1-1.2c1,0,1.6,0.5,1.9,1.3c0.7-0.8,1.4-1.3,2.2-1.3c1.4,0,2.1,0.9,2.1,2.7
				v4.3h-1.2v-4.2c0-1.3-0.4-1.8-1.3-1.8c-0.5,0-1.1,0.3-1.7,1v4.9h-1.2v-4.2c0-1.3-0.4-1.8-1.3-1.8c-0.5,0-1.1,0.3-1.7,1v4.9h-1.2
				v-6.6H194.6z"/>
			<path d="M205.7,291.2c0-2.2,1.5-3.6,3.1-3.6c1.7,0,2.7,1.2,2.7,3.2c0,0.2,0,0.5-0.1,0.7h-4.6c0.1,1.4,1,2.4,2.3,2.4
				c0.7,0,1.2-0.2,1.7-0.5l0.4,0.8c-0.6,0.4-1.3,0.7-2.2,0.7C207.1,294.8,205.7,293.5,205.7,291.2z M210.4,290.7
				c0-1.4-0.6-2.1-1.7-2.1c-1,0-1.8,0.8-2,2.1H210.4z"/>
			<path d="M213.1,287.8h1l0.1,1l0,0c0.6-0.6,1.3-1.1,2.3-1.1c1.4,0,2.1,0.9,2.1,2.7v4.3h-1.2v-4.2c0-1.3-0.4-1.8-1.3-1.8
				c-0.7,0-1.2,0.4-1.9,1v4.9H213L213.1,287.8L213.1,287.8z"/>
			<path d="M221,292.5v-3.8h-1v-0.9l1.1-0.1l0.1-1.9h1v1.9h1.8v0.9h-1.8v3.8c0,0.8,0.3,1.3,1.1,1.3c0.2,0,0.6-0.1,0.8-0.2l0.2,0.9
				c-0.4,0.1-0.8,0.3-1.3,0.3C221.5,294.8,221,293.9,221,292.5z"/>
		</g>
	</g>
	<circle id="path5728" class="st5" cx="109.5" cy="309.8" r="3.6"/>
	<circle id="path5728-6" class="st5" cx="109.5" cy="290.8" r="3.6"/>
	<text transform="matrix(1 0 0 1 19.6885 268.5203)" class="st6 st7">Omar Contracting</text>
	<text transform="matrix(1 0 0 1 19.6885 268.5203)" class="st8 st6 st7">Omar Contracting</text>
	<rect x="-40.3" y="213" class="st4" width="5.9" height="1.8"/>
	<g>
		<g class="st2">
			<g>
				<g>
					<path class="st3" d="M17.4,335.8h1.2l1,3.9c0.1,0.6,0.3,1.3,0.4,1.9H20c0.1-0.6,0.3-1.3,0.5-1.9l1.1-3.9h1.1l1.1,3.9
						c0.2,0.6,0.3,1.3,0.5,1.9h0.1c0.1-0.6,0.3-1.3,0.4-1.9l1-3.9h1.1l-1.8,6.8h-1.4l-1-3.7c-0.2-0.6-0.3-1.3-0.5-2H22
						c-0.1,0.7-0.3,1.3-0.5,2l-1,3.6h-1.3L17.4,335.8z"/>
					<path class="st3" d="M27.4,335.8h1.2l1,3.9c0.1,0.6,0.3,1.3,0.4,1.9h0.1c0.1-0.6,0.3-1.3,0.5-1.9l1.1-3.9h1.1l1.1,3.9
						c0.2,0.6,0.3,1.3,0.5,1.9h0.1c0.1-0.6,0.3-1.3,0.4-1.9l1-3.9h1.1l-1.8,6.8h-1.4l-1-3.7c-0.2-0.6-0.3-1.3-0.5-2h-0.1
						c-0.1,0.7-0.3,1.3-0.5,2l-1,3.6h-1.3L27.4,335.8z"/>
					<path class="st3" d="M37.5,335.8h1.2l1,3.9c0.1,0.6,0.3,1.3,0.4,1.9h0.1c0.1-0.6,0.3-1.3,0.5-1.9l1.1-3.9h1.1l1.1,3.9
						c0.2,0.6,0.3,1.3,0.5,1.9h0.1c0.1-0.6,0.3-1.3,0.4-1.9l1-3.9h1.1l-1.8,6.8h-1.4l-1-3.7c-0.2-0.6-0.3-1.3-0.5-2h-0.1
						c-0.1,0.7-0.3,1.3-0.5,2l-1,3.6h-1.3L37.5,335.8z"/>
					<path class="st3" d="M48.1,341.9c0-0.5,0.4-0.9,0.8-0.9c0.5,0,0.8,0.4,0.8,0.9c0,0.5-0.4,0.9-0.8,0.9
						C48.5,342.8,48.1,342.4,48.1,341.9z"/>
					<path class="st3" d="M51.4,338c0-2.9,1.6-4.7,3.9-4.7s3.9,1.8,3.9,4.7c0,2.9-1.6,4.8-3.9,4.8S51.4,340.9,51.4,338z M58,338
						c0-2.3-1.1-3.7-2.7-3.7s-2.7,1.4-2.7,3.7s1.1,3.8,2.7,3.8S58,340.3,58,338z"/>
					<path class="st3" d="M61.1,335.8h1l0.1,1h0c0.6-0.6,1.3-1.2,2.1-1.2c1,0,1.6,0.5,1.9,1.3c0.7-0.8,1.4-1.3,2.2-1.3
						c1.4,0,2.1,0.9,2.1,2.7v4.3h-1.2v-4.2c0-1.3-0.4-1.8-1.3-1.8c-0.5,0-1.1,0.3-1.7,1v4.9h-1.2v-4.2c0-1.3-0.4-1.8-1.3-1.8
						c-0.5,0-1.1,0.3-1.7,1v4.9h-1.2V335.8z"/>
					<path class="st3" d="M72.3,340.9c0-1.5,1.3-2.2,4.2-2.5c0-0.9-0.3-1.7-1.4-1.7c-0.8,0-1.5,0.4-2,0.7l-0.5-0.8
						c0.6-0.4,1.6-0.9,2.7-0.9c1.7,0,2.4,1.1,2.4,2.8v4.2h-1l-0.1-0.8h0c-0.6,0.5-1.4,1-2.3,1C73.1,342.8,72.3,342.1,72.3,340.9z
						 M76.5,341v-1.9c-2.3,0.3-3.1,0.8-3.1,1.7c0,0.8,0.5,1.1,1.2,1.1C75.3,341.9,75.8,341.5,76.5,341z"/>
					<path class="st3" d="M79.8,335.8h1l0.1,1.2h0c0.5-0.9,1.2-1.4,1.9-1.4c0.3,0,0.5,0,0.7,0.1l-0.2,1c-0.2-0.1-0.4-0.1-0.7-0.1
						c-0.6,0-1.3,0.4-1.7,1.6v4.4h-1.2V335.8z"/>
					<path class="st3" d="M84.1,341.4l0.7-0.8c0.7,0.7,1.6,1.1,2.5,1.1c1.2,0,1.9-0.6,1.9-1.5c0-0.9-0.7-1.2-1.5-1.6l-1.3-0.6
						c-0.9-0.4-1.9-1-1.9-2.4c0-1.4,1.2-2.4,2.9-2.4c1.1,0,2.1,0.5,2.7,1.1l-0.6,0.8c-0.6-0.5-1.2-0.9-2.1-0.9c-1,0-1.7,0.5-1.7,1.3
						c0,0.9,0.8,1.2,1.5,1.5l1.3,0.6c1.1,0.5,1.9,1.1,1.9,2.5c0,1.5-1.2,2.6-3.1,2.6C86,342.8,84.9,342.3,84.1,341.4z"/>
					<path class="st3" d="M92.1,332.6h1.2v2.7l0,1.4c0.6-0.6,1.3-1.1,2.3-1.1c1.4,0,2.1,0.9,2.1,2.7v4.3h-1.2v-4.2
						c0-1.3-0.4-1.8-1.3-1.8c-0.7,0-1.2,0.4-1.9,1v4.9h-1.2V332.6z"/>
					<path class="st3" d="M99.5,333.7c0-0.5,0.3-0.7,0.8-0.7c0.4,0,0.8,0.3,0.8,0.7c0,0.4-0.3,0.7-0.8,0.7
						C99.9,334.4,99.5,334.1,99.5,333.7z M99.7,335.8h1.2v6.8h-1.2V335.8z"/>
					<path class="st3" d="M102.4,341.8l0.6-0.8c0.6,0.5,1.2,0.8,2,0.8c0.9,0,1.3-0.5,1.3-1.1c0-0.7-0.8-1-1.6-1.3c-1-0.3-2-0.8-2-2
						c0-1.1,0.9-1.9,2.3-1.9c0.8,0,1.6,0.3,2.1,0.8l-0.6,0.7c-0.5-0.3-1-0.6-1.6-0.6c-0.9,0-1.3,0.5-1.3,1c0,0.6,0.7,0.9,1.5,1.2
						c1,0.4,2.1,0.8,2.1,2.1c0,1.1-0.9,2-2.5,2C104,342.8,103.1,342.4,102.4,341.8z"/>
					<path class="st3" d="M109,332.6h1.2v2.7l0,1.4c0.6-0.6,1.3-1.1,2.3-1.1c1.4,0,2.1,0.9,2.1,2.7v4.3h-1.2v-4.2
						c0-1.3-0.4-1.8-1.3-1.8c-0.7,0-1.2,0.4-1.9,1v4.9H109V332.6z"/>
					<path class="st3" d="M116.2,340.9c0-1.5,1.3-2.2,4.2-2.5c0-0.9-0.3-1.7-1.4-1.7c-0.8,0-1.5,0.4-2,0.7l-0.5-0.8
						c0.6-0.4,1.6-0.9,2.7-0.9c1.7,0,2.4,1.1,2.4,2.8v4.2h-1l-0.1-0.8h0c-0.6,0.5-1.4,1-2.3,1C117.1,342.8,116.2,342.1,116.2,340.9z
						 M120.4,341v-1.9c-2.3,0.3-3.1,0.8-3.1,1.7c0,0.8,0.5,1.1,1.2,1.1C119.2,341.9,119.7,341.5,120.4,341z"/>
					<path class="st3" d="M123.7,335.8h1l0.1,1h0c0.6-0.6,1.3-1.2,2.3-1.2c1.4,0,2.1,0.9,2.1,2.7v4.3H128v-4.2
						c0-1.3-0.4-1.8-1.3-1.8c-0.7,0-1.2,0.4-1.9,1v4.9h-1.2V335.8z"/>
					<path class="st3" d="M131.2,333.7c0-0.5,0.3-0.7,0.8-0.7c0.4,0,0.8,0.3,0.8,0.7c0,0.4-0.3,0.7-0.8,0.7
						C131.5,334.4,131.2,334.1,131.2,333.7z M131.4,335.8h1.2v6.8h-1.2V335.8z"/>
					<path class="st3" d="M134.6,341.9c0-0.5,0.4-0.9,0.8-0.9c0.5,0,0.8,0.4,0.8,0.9c0,0.5-0.4,0.9-0.8,0.9
						C134.9,342.8,134.6,342.4,134.6,341.9z"/>
					<path class="st3" d="M137.8,339.2c0-2.3,1.5-3.6,3.3-3.6c0.9,0,1.5,0.4,2,0.8l-0.6,0.8c-0.4-0.4-0.8-0.6-1.4-0.6
						c-1.2,0-2.1,1.1-2.1,2.6s0.9,2.6,2.1,2.6c0.6,0,1.2-0.3,1.6-0.7l0.5,0.8c-0.6,0.5-1.4,0.9-2.2,0.9
						C139.2,342.8,137.8,341.5,137.8,339.2z"/>
					<path class="st3" d="M144.2,339.2c0-2.3,1.5-3.6,3.2-3.6s3.2,1.3,3.2,3.6c0,2.3-1.5,3.6-3.2,3.6S144.2,341.5,144.2,339.2z
						 M149.3,339.2c0-1.6-0.8-2.6-2-2.6s-2,1.1-2,2.6s0.8,2.6,2,2.6S149.3,340.8,149.3,339.2z"/>
					<path class="st3" d="M152.3,335.8h1l0.1,1h0c0.6-0.6,1.3-1.2,2.1-1.2c1,0,1.6,0.5,1.9,1.3c0.7-0.8,1.4-1.3,2.2-1.3
						c1.4,0,2.1,0.9,2.1,2.7v4.3h-1.2v-4.2c0-1.3-0.4-1.8-1.3-1.8c-0.5,0-1.1,0.3-1.7,1v4.9h-1.2v-4.2c0-1.3-0.4-1.8-1.3-1.8
						c-0.5,0-1.1,0.3-1.7,1v4.9h-1.2V335.8z"/>
				</g>
			</g>
			<rect x="232.7" y="297.6" class="st4" width="24.1" height="2.6"/>
		</g>
	</g>
	<g>
		<g class="st2">
			<g>
				<g>
					<path class="st3" d="M17.7,374.3c0-3,1.7-4.8,4.1-4.8c1.1,0,2,0.5,2.5,1.1l-0.6,0.8c-0.5-0.5-1.1-0.9-1.9-0.9
						c-1.7,0-2.9,1.4-2.9,3.7c0,2.3,1.1,3.8,2.8,3.8c0.9,0,1.5-0.4,2.1-1l0.6,0.7c-0.7,0.8-1.6,1.3-2.8,1.3
						C19.5,379,17.7,377.2,17.7,374.3z"/>
					<path class="st3" d="M25.7,377.1c0-1.5,1.3-2.2,4.2-2.5c0-0.9-0.3-1.7-1.4-1.7c-0.8,0-1.5,0.4-2,0.7l-0.5-0.8
						c0.6-0.4,1.6-0.9,2.7-0.9c1.7,0,2.4,1.1,2.4,2.8v4.2h-1L30,378h0c-0.6,0.5-1.4,1-2.3,1C26.6,379,25.7,378.3,25.7,377.1z
						 M29.9,377.2v-1.9c-2.3,0.3-3.1,0.8-3.1,1.7c0,0.8,0.5,1.1,1.2,1.1C28.7,378.1,29.3,377.8,29.9,377.2z"/>
					<path class="st3" d="M33.2,377.5v-8.6h1.2v8.7c0,0.4,0.2,0.5,0.3,0.5c0.1,0,0.1,0,0.3,0l0.2,0.9c-0.2,0.1-0.4,0.1-0.7,0.1
						C33.6,379,33.2,378.5,33.2,377.5z"/>
					<path class="st3" d="M36.8,377.5v-8.6h1.2v8.7c0,0.4,0.2,0.5,0.3,0.5c0.1,0,0.1,0,0.3,0l0.2,0.9c-0.2,0.1-0.4,0.1-0.7,0.1
						C37.1,379,36.8,378.5,36.8,377.5z"/>
					<path class="st3" d="M43.1,368.9h0.8l-3.7,12.2h-0.8L43.1,368.9z"/>
					<path class="st3" d="M47.3,370.6h-2.8v-1h6.7v1h-2.8v8.2h-1.2V370.6z"/>
					<path class="st3" d="M52.3,375.4c0-2.2,1.5-3.6,3.1-3.6c1.7,0,2.7,1.2,2.7,3.2c0,0.2,0,0.5-0.1,0.7h-4.6c0.1,1.4,1,2.4,2.3,2.4
						c0.7,0,1.2-0.2,1.7-0.5l0.4,0.8c-0.6,0.4-1.3,0.7-2.2,0.7C53.7,379,52.3,377.7,52.3,375.4z M57,374.9c0-1.4-0.6-2.1-1.7-2.1
						c-1,0-1.8,0.8-2,2.1H57z"/>
					<path class="st3" d="M61,375.3l-2.1-3.3h1.2l0.9,1.5c0.2,0.4,0.4,0.8,0.7,1.1h0.1c0.2-0.4,0.4-0.8,0.6-1.1l0.8-1.5h1.2
						l-2.1,3.4l2.2,3.4h-1.2l-1-1.6c-0.2-0.4-0.5-0.8-0.7-1.2h-0.1c-0.2,0.4-0.5,0.8-0.7,1.2l-0.9,1.6h-1.2L61,375.3z"/>
					<path class="st3" d="M66.2,376.7V373h-1v-0.9l1.1-0.1l0.1-1.9h1v1.9h1.8v0.9h-1.8v3.8c0,0.8,0.3,1.3,1.1,1.3
						c0.2,0,0.6-0.1,0.8-0.2l0.2,0.9c-0.4,0.1-0.8,0.3-1.3,0.3C66.6,379,66.2,378.1,66.2,376.7z"/>
					<path class="st3" d="M70.4,373.1c0-0.5,0.4-0.9,0.8-0.9c0.5,0,0.8,0.4,0.8,0.9c0,0.5-0.4,0.9-0.8,0.9
						C70.8,374,70.4,373.6,70.4,373.1z M70.4,378.1c0-0.5,0.4-0.9,0.8-0.9c0.5,0,0.8,0.4,0.8,0.9c0,0.5-0.4,0.9-0.8,0.9
						C70.8,379,70.4,378.7,70.4,378.1z"/>
					<path class="st3" d="M76.8,374.9c0-2.5,0.7-4.5,1.8-6.4l1.3,0.5c-1,1.8-1.5,3.9-1.5,5.9s0.4,4.1,1.5,5.9l-1.3,0.5
						C77.5,379.4,76.8,377.4,76.8,374.9z"/>
					<path class="st3" d="M85.2,371.7h-4v-1.7h6.2v1.3c-2.1,2.5-2.3,4.2-2.5,7.6h-2.1C83,375.9,83.6,374,85.2,371.7z"/>
					<path class="st3" d="M88.5,374.4c0-3,1.3-4.6,3.2-4.6s3.2,1.6,3.2,4.6c0,3-1.3,4.7-3.2,4.7S88.5,377.4,88.5,374.4z M93,374.4
						c0-2.4-0.5-3-1.2-3s-1.2,0.6-1.2,3c0,2.4,0.5,3.1,1.2,3.1S93,376.8,93,374.4z"/>
					<path class="st3" d="M100,371.7h-4v-1.7h6.2v1.3c-2.1,2.5-2.3,4.2-2.5,7.6h-2.1C97.8,375.9,98.3,374,100,371.7z"/>
					<path class="st3" d="M103.5,380.8c1-1.8,1.5-3.9,1.5-5.9s-0.4-4.1-1.5-5.9l1.3-0.5c1.2,1.9,1.8,3.9,1.8,6.4
						c0,2.5-0.7,4.5-1.8,6.4L103.5,380.8z"/>
					<path class="st3" d="M110.7,377.8l0.9-1.3c0.5,0.5,1.2,0.9,1.9,0.9c0.9,0,1.4-0.4,1.4-1.1c0-0.8-0.5-1.3-2.4-1.3v-1.5
						c1.6,0,2.1-0.5,2.1-1.2c0-0.6-0.4-1-1.1-1c-0.6,0-1.1,0.3-1.7,0.8l-1-1.3c0.8-0.7,1.7-1.1,2.8-1.1c1.8,0,3.1,0.9,3.1,2.4
						c0,0.9-0.5,1.6-1.5,2v0.1c1,0.3,1.8,1,1.8,2.2c0,1.7-1.5,2.6-3.3,2.6C112.4,379,111.4,378.5,110.7,377.8z"/>
					<path class="st3" d="M121.9,373.7c0-0.6,0.1-1.4,0.1-2H122c-0.2,0.5-0.5,1-0.7,1.5l-1.2,1.9h4.8v1.6h-6.8v-1.4l3.2-5.3h2.5v8.9
						h-1.9V373.7z"/>
					<path class="st3" d="M125.7,377.7c2.3-2.1,3.9-3.7,3.9-4.9c0-0.9-0.5-1.3-1.3-1.3c-0.6,0-1.1,0.4-1.6,0.9l-1.1-1.1
						c0.9-0.9,1.7-1.4,3-1.4c1.8,0,3,1.1,3,2.8c0,1.5-1.4,3.1-2.9,4.6c0.5-0.1,1.1-0.1,1.5-0.1h1.8v1.7h-6.3V377.7z"/>
					<path class="st3" d="M136,374.6h3.4v1.5H136V374.6z"/>
					<path class="st3" d="M143.4,376.6c0-1.1,0.7-1.7,1.5-2.2v-0.1c-0.7-0.5-1.2-1.2-1.2-2.1c0-1.5,1.2-2.5,2.8-2.5
						c1.6,0,2.7,1,2.7,2.4c0,0.8-0.6,1.5-1.2,1.9v0.1c0.8,0.5,1.5,1.1,1.5,2.3c0,1.4-1.3,2.5-3.1,2.5
						C144.8,379,143.4,378,143.4,376.6z M147.8,376.5c0-0.8-0.8-1.1-1.9-1.6c-0.4,0.4-0.7,0.9-0.7,1.4c0,0.8,0.6,1.2,1.4,1.2
						C147.3,377.6,147.8,377.2,147.8,376.5z M147.6,372.4c0-0.7-0.4-1.1-1.1-1.1c-0.5,0-1,0.3-1,1c0,0.7,0.6,1.1,1.5,1.4
						C147.4,373.3,147.6,372.8,147.6,372.4z"/>
					<path class="st3" d="M150.8,374.6c0-3.3,1.7-4.8,3.6-4.8c1.2,0,2,0.5,2.6,1.1l-1.1,1.2c-0.3-0.3-0.9-0.6-1.4-0.6
						c-1,0-1.9,0.8-1.9,3.2c0,2.2,0.7,2.9,1.4,2.9c0.6,0,1.1-0.4,1.1-1.4c0-0.9-0.5-1.3-1.2-1.3c-0.5,0-1,0.3-1.4,1l-0.1-1.3
						c0.5-0.7,1.3-1.1,1.9-1.1c1.5,0,2.7,0.9,2.7,2.8c0,1.9-1.3,3-3,3C152.5,379,150.8,377.7,150.8,374.6z"/>
					<path class="st3" d="M161.8,373.7c0-0.6,0.1-1.4,0.1-2h-0.1c-0.2,0.5-0.5,1-0.7,1.5l-1.2,1.9h4.8v1.6h-6.8v-1.4l3.2-5.3h2.5
						v8.9h-1.9V373.7z"/>
					<path class="st3" d="M165.6,376.6c0-1.1,0.7-1.7,1.5-2.2v-0.1c-0.7-0.5-1.2-1.2-1.2-2.1c0-1.5,1.2-2.5,2.8-2.5
						c1.6,0,2.7,1,2.7,2.4c0,0.8-0.6,1.5-1.2,1.9v0.1c0.8,0.5,1.5,1.1,1.5,2.3c0,1.4-1.3,2.5-3.1,2.5
						C166.9,379,165.6,378,165.6,376.6z M169.9,376.5c0-0.8-0.8-1.1-1.9-1.6c-0.4,0.4-0.7,0.9-0.7,1.4c0,0.8,0.6,1.2,1.4,1.2
						C169.4,377.6,169.9,377.2,169.9,376.5z M169.8,372.4c0-0.7-0.4-1.1-1.1-1.1c-0.5,0-1,0.3-1,1c0,0.7,0.6,1.1,1.5,1.4
						C169.6,373.3,169.8,372.8,169.8,372.4z"/>
				</g>
			</g>
			<rect x="232.7" y="333.8" class="st4" width="24.1" height="2.6"/>
		</g>
	</g>
</g>
</svg>
