<svg xmlns="http://www.w3.org/2000/svg" width="100" height="100" viewBox="0 0 26.458 26.458"><path d="M-35.952 12.002h1.64c-.181-.954.136-1.327.443-1.96h-2.083v1.96" fill="#500" stroke="#000" stroke-width=".265" stroke-linecap="round" stroke-linejoin="round"/><path d="M-36.388 8.236l-1.488.32-.677.827c-.067 2.307-.394 4.68-.872 7.09l.88.98.952.359 1.252-.073 1.184-.904c-.32-1.249-1.343-1.695-.942-4.036.172-1.205.545-2.397 1.436-3.372l-.691-.822z" fill="#a00" stroke="#000" stroke-width=".63"/><g stroke="#000"><rect width="7.808" height="1.263" x="-30.264" y="-8.16" transform="scale(1 -1)" ry=".631" fill="#c8b7b7" stroke-width=".4" stroke-linecap="round" stroke-linejoin="round"/><path d="M-28.43 8.14l.899-1.186M-27.517 8.051l.9-1.186M-26.677 8.051l.9-1.186M-25.82 8.051l.899-1.186M-24.994 8.051l.9-1.186M-24.165 8.051l.9-1.186M-23.42 8.16l.9-1.186M-29.31 8.201l.9-1.186" fill="none" stroke-width=".265"/></g><g stroke="#000"><rect width="8.833" height="4.307" x="-38.159" y="-18.342" rx="1.5" fill="#cd87de" stroke-width=".63" stroke-linecap="round" stroke-linejoin="round"/><path fill="#cd87de" stroke-width=".63" stroke-linecap="round" stroke-linejoin="round" d="M-27.001-15.648h6.543v-1.309h-6.543z"/><rect width="2.712" height="9.473" x="-43.605" y="-16.264" ry="1.356" fill="#cd87de" stroke-width=".753" stroke-linecap="round" stroke-linejoin="round"/><ellipse cx="-29.976" cy="-16.189" rx="2.154" ry="1.936" fill="#cd87de" stroke-width=".63" stroke-linecap="round" stroke-linejoin="round"/><rect width="7.252" height="3.871" x="-37.98" y="-8.403" ry="1.5" fill="#cd87de" stroke-width=".63" stroke-linecap="round" stroke-linejoin="round"/><ellipse cx="-28.069" cy="-16.287" rx="1.363" ry="1.2" fill="#cd87de" stroke-width=".63" stroke-linecap="round" stroke-linejoin="round"/><rect width="2.712" height="9.473" x="-25.394" y="-13.646" ry="1.356" fill="#cd87de" stroke-width=".753" stroke-linecap="round" stroke-linejoin="round"/><path d="M-34.16-15.595l-1.488.32-.677.827-.872 7.089.88.981.952.359 1.252-.073 1.183-.905c-.318-1.248-1.342-1.694-.94-4.035.171-1.206.544-2.397 1.435-3.373l-.691-.822z" fill="#f0f" stroke-width=".325"/><path d="M-38.887 5.489c-.831 0-1.5.669-1.5 1.5v1.307c0 .831.669 1.5 1.5 1.5h5.833c.288 0 .555-.082.783-.221a2.154 1.936 0 00.067.003 2.154 1.936 0 001.772-.84 1.363 1.2 0 00.135.006 1.363 1.2 0 001.363-1.2 1.363 1.2 0 00-1.363-1.2 1.363 1.2 0 00-.284.029 2.154 1.936 0 00-1.623-.666 2.154 1.936 0 00-.069.002 1.495 1.495 0 00-.781-.22z" fill="#cd87de" stroke-width=".63" stroke-linecap="round" stroke-linejoin="round"/><rect width="7.252" height="3.871" x="-40.208" y="15.428" ry="1.5" fill="#cd87de" stroke-width=".63" stroke-linecap="round" stroke-linejoin="round"/><path d="M-37.286 11.145h1.49" fill="none" stroke-width=".245" stroke-linecap="round"/><path d="M-37.543 12.263h1.323" fill="none" stroke-width=".274" stroke-linecap="round"/><path d="M-37.338 14.268h1.31M-37.577 13.281h1.377" fill="none" stroke-width=".265" stroke-linecap="round"/><path d="M-38.3 16.318v1.909h3.954" fill="none" stroke-width=".15" stroke-linecap="round" stroke-linejoin="round"/><path d="M-37.645 17.327h3.217M-37.624 16.423h3.217" fill="none" stroke-width=".15" stroke-linecap="round"/><path d="M-40.208 16.727h1.2v-1.226" fill="maroon" stroke-width=".265" stroke-linejoin="round"/><path d="M-32.273 5.71v3.848M-30.58 6.373V8.69" fill="none" stroke-width=".265"/><path d="M-38.945 6.335h1.322M-38.945 7.2h1.322M-38.934 7.978h1.322M-38.907 8.833h1.323" fill="none" stroke-width=".274" stroke-linecap="round"/><path d="M-36.795 36.962h1.64c-.181-.954.136-1.327.443-1.96h-2.083v1.96" fill="#500" stroke-width=".265" stroke-linecap="round" stroke-linejoin="round"/><path d="M-37.232 33.196l-1.487.32-.677.827c-.067 2.307-.394 4.68-.872 7.09l.88.98.952.359 1.252-.073 1.183-.904c-.318-1.249-1.342-1.695-.94-4.036.171-1.205.544-2.397 1.435-3.372l-.691-.822z" fill="#a00" stroke-width=".53"/><rect width="7.808" height="1.263" x="-31.107" y="-33.12" transform="scale(1 -1)" ry=".631" fill="#c8b7b7" stroke-width=".4" stroke-linecap="round" stroke-linejoin="round"/><path d="M-29.274 33.1l.9-1.186M-28.36 33.011l.9-1.186M-27.52 33.011l.9-1.186M-26.664 33.011l.9-1.186M-25.837 33.011l.9-1.186M-25.008 33.011l.9-1.186M-24.263 33.12l.9-1.186M-30.152 33.161l.9-1.186" fill="none" stroke-width=".265"/><rect width="7.252" height="3.871" x="-41.051" y="40.388" ry="1.5" fill="#cd87de" stroke-width=".63" stroke-linecap="round" stroke-linejoin="round"/><path d="M-38.129 36.105h1.49" fill="none" stroke-width=".245" stroke-linecap="round"/><path d="M-38.386 37.223h1.323" fill="none" stroke-width=".274" stroke-linecap="round"/><path d="M-38.181 39.228h1.31M-38.42 38.241h1.377" fill="none" stroke-width=".265" stroke-linecap="round"/><path d="M-39.142 41.278v1.909h3.953" fill="none" stroke-width=".15" stroke-linecap="round" stroke-linejoin="round"/><path d="M-38.488 42.287h3.217M-38.467 41.383h3.217" fill="none" stroke-width=".15" stroke-linecap="round"/><path d="M-41.05 41.687h1.199v-1.226" fill="maroon" stroke-width=".265" stroke-linejoin="round"/></g><g stroke="#000"><path d="M-39.73 30.449c-.831 0-1.5.669-1.5 1.5v1.307c0 .831.669 1.5 1.5 1.5h5.833c.288 0 .555-.082.783-.221a2.154 1.936 0 00.067.003 2.154 1.936 0 001.772-.84 1.363 1.2 0 00.135.006 1.363 1.2 0 001.363-1.2 1.363 1.2 0 00-1.363-1.2 1.363 1.2 0 00-.284.029 2.154 1.936 0 00-1.623-.666 2.154 1.936 0 00-.069.002 1.495 1.495 0 00-.781-.22z" fill="#cd87de" stroke-width=".43" stroke-linecap="round" stroke-linejoin="round"/><path d="M-39.788 31.295h1.322M-39.788 32.16h1.322M-39.778 32.938h1.323M-39.75 33.793h1.323" fill="none" stroke-width=".274" stroke-linecap="round"/><path d="M-33.116 30.67v3.848M-31.424 31.333v2.318" fill="none" stroke-width=".265"/><path d="M-31.999 31.167c-.074.029-.16.01-.239.017h-.745v.331h1.025c.038.028.018.093-.03.086-.332.01-.663.004-.995.005v.348c.333.002.665-.006.997.005.044 0 .058.056.023.08-.098.012-.207.002-.31.005h-.71v.323c.347.003.694-.007 1.04.007.041.017.01.091-.034.079-.335.01-.67.002-1.005.005v.314c.345.003.691-.006 1.037.006.044-.001.059.055.023.08-.098.011-.207.002-.309.005h-.752v.355c.346.004.693-.007 1.038.008.056.008.04.095-.015.086-.34.01-.682.003-1.023.006v.297h1.066c.028.018.044.08-.001.085-.355.012-.71.004-1.065.006v.306h1.04c.155-.097.3-.215.417-.355-.034-.007-.042-.028-.034-.068V31.5a1.853 1.853 0 00-.433-.334h-.003zM-32.983 30.985c.006.045-.024.125.05.1h.79a2.155 2.155 0 00-.84-.2v.1zM-32.983 34.212c.01.04-.029.132.042.106.287-.017.572-.086.83-.214h-.872v.108z" fill="maroon" stroke-width=".013" stroke-linecap="round" stroke-linejoin="round"/><circle cx="13.361" cy="13.295" r="12.548" fill="none" stroke-width=".864" stroke-linecap="round"/></g><g fill="none" stroke="#000" stroke-width=".089" stroke-linecap="round"><path d="M-33.098 32.41h1.131M-33.12 32h1.13M-33.113 31.558h1.131M-33.064 33.664h1.131M-33.087 33.268h1.132M-33.08 32.819h1.132M-33.164 31.135h1.131M-33 34.056h1.131"/></g></svg>