<svg xmlns="http://www.w3.org/2000/svg" viewBox="0 0 26.458 26.458" height="100" width="100"><g stroke="#000"><path d="M11.28 14.592l1.224-.47c-.408-.66-.278-1.028-.23-1.589l-1.554.596.56 1.463" fill="#500" stroke-width=".211" stroke-linecap="round" stroke-linejoin="round"/><path d="M9.877 11.906l-1.019.665-.268.81c.61 1.741 1.044 3.605 1.377 5.54l.937.481.814-.004.913-.413.624-1.014c-.594-.84-1.486-.88-1.856-2.742-.217-.949-.28-1.945.107-2.928l-.751-.416z" fill="#a00" stroke-width=".424"/><rect ry=".505" transform="scale(1 -1) rotate(20.969)" y="-14.591" x="9.857" height="1.009" width="6.24" fill="#c8b7b7" stroke-width=".32" stroke-linecap="round" stroke-linejoin="round"/><path d="M15.789 9.558l.332-1.142M16.445 9.23l.332-1.142M17.072 8.99l.333-1.142M17.711 8.746l.333-1.143M18.328 8.51l.333-1.143M18.947 8.272l.332-1.142M19.534 8.14l.332-1.142M15.15 9.855l.333-1.142" fill="none" stroke-width=".211"/><rect transform="rotate(-20.97)" ry="1.199" y="20.401" x="1.91" height="3.094" width="5.796" fill="#cd87de" stroke-width=".504" stroke-linecap="round" stroke-linejoin="round"/><path d="M10.04 14.334l1.112-.426" fill="none" stroke-width=".196" stroke-linecap="round"/><path d="M10.168 15.242l.987-.378" fill="none" stroke-width=".219" stroke-linecap="round"/><path d="M10.894 16.68l.978-.375M10.433 16.011l1.028-.393" fill="none" stroke-width=".211" stroke-linecap="round"/><path d="M10.763 18.485l.546 1.424 2.95-1.13" fill="none" stroke-width=".12" stroke-linecap="round" stroke-linejoin="round"/><path d="M11.54 19.05l2.4-.92M11.297 18.37l2.4-.92" fill="none" stroke-width=".12" stroke-linecap="round"/><path d="M9.456 19.336l.895-.343-.351-.916" fill="maroon" stroke-width=".211" stroke-linejoin="round"/><path d="M7.227 10.57c-.62.238-.929.929-.69 1.549l.373.976c.238.62.928.928 1.549.69l4.353-1.668c.215-.083.391-.22.521-.39a1.721 1.547-20.97 00.051-.016 1.721 1.547-20.97 001.083-1.134 1.09.959-20.97 00.102-.034 1.09.959-20.97 00.674-1.285 1.09.959-20.97 00-1.36-.506 1.09.959-20.97 00-.204.102 1.721 1.547-20.97 00-1.402-.033 1.721 1.547-20.97 00-.05.022 1.195 1.195 0 00-.647.059z" fill="#cd87de" stroke-width=".3436861" stroke-linecap="round" stroke-linejoin="round"/><path d="M7.425 11.219l.987-.379M7.673 11.865l.987-.379M7.903 12.442l.987-.378M8.169 13.072l.987-.378" fill="none" stroke-width=".21899998000000004" stroke-linecap="round"/><path d="M12.226 8.843l1.101 2.873M13.679 8.854l.663 1.73" fill="none" stroke-width=".21180655"/><path d="M13.202 8.895c-.047.043-.116.054-.173.081l-.556.214.095.247.765-.294c.036.01.039.064 0 .073-.243.102-.493.192-.74.288l.1.26c.249-.093.494-.195.745-.281.033-.013.06.025.04.053-.07.037-.153.06-.229.092l-.53.203.092.241c.26-.097.516-.203.778-.292.036 0 .034.065-.003.068-.247.104-.5.194-.749.292l.09.234c.26-.096.515-.202.776-.292.032-.013.06.024.04.053-.07.037-.154.06-.229.092l-.56.215.1.266c.26-.097.515-.204.777-.291.045-.01.057.059.013.068-.25.106-.507.198-.76.297l.084.222.796-.305c.026.005.055.047.023.063-.261.111-.529.206-.793.31l.088.228.776-.297c.088-.117.162-.247.209-.385-.027.005-.039-.009-.045-.04l-.597-1.56a1.48 1.48 0 00-.419-.125h-.002zM12.416 9.04c.017.032.017.1.066.061l.589-.226a1.722 1.722 0 00-.684.09l.029.076zM13.34 11.45c.018.026.015.106.06.066.21-.095.403-.228.56-.397l-.652.249.031.081z" fill="maroon" stroke-width=".01" stroke-linecap="round" stroke-linejoin="round"/><path d="M12.737 10.137l.844-.323M12.603 9.838l.845-.323M12.482 9.506l.845-.324M13.121 11.063l.845-.323M12.991 10.775l.845-.324M12.868 10.437l.845-.324M12.323 9.205l.845-.324M13.281 11.338l.844-.324" fill="none" stroke-width=".071" stroke-linecap="round"/><circle r="12.548" cy="13.295" cx="13.361" fill="none" stroke-width=".864" stroke-linecap="round"/></g></svg>