<svg xmlns="http://www.w3.org/2000/svg" viewBox="0 0 26.458 26.458" height="100" width="100"><g stroke="#000"><path d="M11.118 15.112l1.525-.584c-.508-.822-.347-1.282-.287-1.98l-1.936.742.698 1.822" fill="#500" stroke-width=".263" stroke-linecap="round" stroke-linejoin="round"/><path d="M9.37 11.767l-1.269.827-.335 1.01c.76 2.169 1.301 4.491 1.716 6.902l1.168.599 1.013-.006 1.138-.514.778-1.263c-.741-1.047-1.852-1.097-2.313-3.416-.27-1.182-.348-2.423.133-3.647l-.936-.518z" fill="#a00" stroke-width=".528"/><rect ry=".629" transform="scale(1 -1) rotate(20.969)" y="-14.265" x="10.637" height="1.257" width="7.774" fill="#c8b7b7" stroke-width=".398" stroke-linecap="round" stroke-linejoin="round"/><path d="M16.735 8.841l.414-1.423M17.552 8.434l.414-1.423M18.334 8.134l.413-1.423M19.13 7.83l.414-1.424M19.898 7.535l.414-1.424M20.67 7.24l.413-1.424M21.4 7.075l.414-1.423M15.94 9.212l.414-1.424" fill="none" stroke-width=".263"/><rect transform="rotate(-20.97)" ry="1.494" y="21.501" x=".737" height="3.854" width="7.22" fill="#cd87de" stroke-width=".556" stroke-linecap="round" stroke-linejoin="round"/><path d="M9.573 14.79l1.385-.53" fill="none" stroke-width=".244" stroke-linecap="round"/><path d="M9.732 15.922l1.23-.471" fill="none" stroke-width=".273" stroke-linecap="round"/><path d="M10.637 17.713l1.219-.467M10.063 16.88l1.28-.49" fill="none" stroke-width=".263" stroke-linecap="round"/><path d="M10.474 19.962l.68 1.774 3.675-1.409" fill="none" stroke-width=".149" stroke-linecap="round" stroke-linejoin="round"/><path d="M11.442 20.666l2.99-1.146M11.14 19.818l2.99-1.146" fill="none" stroke-width=".149" stroke-linecap="round"/><path d="M8.845 21.022l1.116-.428-.438-1.14" fill="maroon" stroke-width=".263" stroke-linejoin="round"/><path d="M6.069 10.102a1.49 1.49 0 00-.86 1.93l.465 1.215a1.49 1.49 0 001.93.86l5.422-2.079c.268-.102.488-.273.65-.484a2.144 1.927-20.97 00.063-.021 2.144 1.927-20.97 001.349-1.412 1.357 1.194-20.97 00.127-.043 1.357 1.194-20.97 00.84-1.6 1.357 1.194-20.97 00-1.695-.63 1.357 1.194-20.97 00-.254.127 2.144 1.927-20.97 00-1.746-.041 2.144 1.927-20.97 00-.064.027 1.488 1.488 0 00-.805.073z" fill="#cd87de" stroke-width=".4281381" stroke-linecap="round" stroke-linejoin="round"/><path d="M6.316 10.91l1.23-.471M6.625 11.715l1.23-.472M6.912 12.434l1.23-.471M7.242 13.219l1.23-.471" fill="none" stroke-width=".27281358000000006" stroke-linecap="round"/><path d="M12.296 7.95l1.372 3.58M14.106 7.965l.826 2.155" fill="none" stroke-width=".26385255"/><path d="M13.513 8.015c-.06.054-.145.067-.216.101-.23.09-.462.178-.693.266l.118.308.953-.365c.045.012.049.08.001.09-.304.127-.614.24-.921.36l.123.322c.31-.115.616-.242.929-.35.04-.016.074.031.05.067-.087.046-.192.075-.286.115l-.66.253.115.3c.323-.121.642-.254.969-.364.044 0 .042.081-.004.085-.308.13-.622.241-.933.363l.112.292c.322-.12.641-.252.966-.364.04-.017.075.03.05.066-.086.046-.191.076-.285.115l-.699.268.127.33c.323-.12.64-.253.967-.362.055-.013.07.074.017.085-.313.132-.633.246-.949.37l.106.276.99-.38c.034.007.07.06.03.08-.325.138-.658.256-.987.385l.109.284.966-.37a1.74 1.74 0 00.26-.48c-.033.006-.047-.01-.055-.05L14.04 8.17a1.845 1.845 0 00-.521-.156h-.003zM12.533 8.197c.021.04.022.124.082.075l.734-.282a2.145 2.145 0 00-.852.113l.036.094zM13.683 11.197c.023.033.02.133.076.084.26-.119.502-.285.697-.495l-.812.31.039.101z" fill="maroon" stroke-width=".012" stroke-linecap="round" stroke-linejoin="round"/><path d="M12.933 9.563l1.052-.403M12.766 9.19l1.052-.403M12.615 8.776l1.052-.403M13.412 10.716l1.051-.403M13.25 10.357l1.052-.403M13.096 9.936l1.052-.403M12.418 8.401l1.052-.403M13.61 11.058l1.053-.403" fill="none" stroke-width=".089" stroke-linecap="round"/><circle r="12.548" cy="13.295" cx="13.361" fill="none" stroke-width=".864" stroke-linecap="round"/><path d="M23.263 5.995c.004.006.188-.422.181-.421-.006 0 .272.374.275.368a5.96 5.96 0 00-.456.053z" stroke-width=".031"/><path d="M23.195 5.608c-.003.005.354.056.352.052a4.606 4.606 0 00-.22.278 4.62 4.62 0 00-.132-.33z" stroke-width=".0234962"/><path d="M22.976 5.31c-.005.006.448.072.446.065a5.848 5.848 0 00-.28.354 5.865 5.865 0 00-.166-.419z" stroke-width=".029830319999999997"/><path d="M23.092 5.75c.003.007.256-.375.25-.375-.007 0 .197.41.2.403a5.865 5.865 0 00-.45-.027z" stroke-width=".029830319999999997"/><path d="M23.188 5.862c.003.006.256-.375.25-.376-.008 0 .197.41.2.404a5.865 5.865 0 00-.45-.028z" stroke-width=".029830319999999997"/><path d="M-25.464-21.094c.007 0-.198-.418-.201-.412-.004.005.46.037.457.031a5.96 5.96 0 00-.256.38z" transform="matrix(-.561 -.654 -.759 .65108 -7.108 2.943)" stroke-width=".031"/><path d="M-23.651-18.392c.012 0-.34-.716-.346-.706-.006.01.79.064.784.053-.005-.01-.45.652-.438.653z" transform="matrix(-.50387 .26367 .19817 .45906 15.182 20.329)" stroke-width=".052"/><path d="M-23.651-18.392c.012 0-.34-.716-.346-.706-.006.01.79.064.784.053-.005-.01-.45.652-.438.653z" transform="matrix(-.394 -.30292 -.37137 .43416 7.114 6.816)" stroke-width=".052"/><path d="M23.095 6.11c.004.006.188-.422.18-.421-.006 0 .273.374.275.368a5.96 5.96 0 00-.455.053z" stroke-width=".031"/><path d="M23.188 5.424c-.004.005.45.07.447.065a5.848 5.848 0 00-.28.353 5.865 5.865 0 00-.167-.418z" stroke-width=".029830319999999997"/><path d="M23.188 5.862c.003.006.256-.375.25-.376-.008 0 .197.41.2.404a5.865 5.865 0 00-.45-.028z" stroke-width=".029830319999999997"/><path d="M23.263 5.995c.006.004.003-.462-.003-.458-.006.003.399.233.399.226 0-.007-.402.229-.396.232z" stroke-width=".031"/><path d="M23.092 5.75c-.001.007.44-.114.435-.119a5.848 5.848 0 00-.113.436 5.865 5.865 0 00-.322-.316z" stroke-width=".029830319999999997"/><path d="M23.188 5.862c.005.004.083-.447.077-.444-.006.002.345.295.346.288a5.865 5.865 0 00-.423.156z" stroke-width=".029830319999999997"/><path d="M-28.8-22.38c.006 0-.199-.417-.202-.412-.004.006.46.038.457.031a5.96 5.96 0 00-.256.381z" transform="matrix(.65546 .26993 -.37603 .68776 33.783 28.934)" stroke-width=".031"/><path d="M-23.651-18.392c.012 0-.34-.716-.346-.706-.006.01.79.064.784.053-.005-.01-.45.652-.438.653z" transform="matrix(-.11104 .42117 -.41903 -.04746 13.121 14.738)" stroke-width=".052"/><path d="M-23.651-18.392c.012 0-.34-.716-.346-.706-.006.01.79.064.784.053-.005-.01-.45.652-.438.653z" transform="matrix(.33175 .22242 -.27903 .36079 25.903 17.758)" stroke-width=".052"/><path d="M-25.464-21.094c.007 0-.198-.418-.201-.412-.004.005.46.037.457.031a5.96 5.96 0 00-.256.38z" transform="matrix(-.561 -.654 -.759 .65108 -7.108 2.943)" stroke-width=".031"/><path d="M-23.651-18.392c.012 0-.34-.716-.346-.706-.006.01.79.064.784.053-.005-.01-.45.652-.438.653z" transform="matrix(-.11104 .42117 -.41903 -.04746 12.76 14.84)" stroke-width=".052"/><path d="M23.263 5.995c.002.007.31-.332.304-.333-.007-.001.132.435.137.43a5.865 5.865 0 00-.44-.097z" stroke-width=".029830319999999997"/><path d="M23.263 5.995c.007.001-.168-.422-.172-.416-.004.005.45.065.447.059a5.865 5.865 0 00-.275.357z" stroke-width=".029830319999999997"/><path d="M-23.651-18.392c.012 0-.34-.716-.346-.706-.006.01.79.064.784.053-.005-.01-.45.652-.438.653z" transform="matrix(.37007 -.15028 .14263 .43323 34.639 10.41)" stroke-width=".052"/><path d="M23.195 5.608c.002.007.31-.331.304-.333-.007-.001.132.435.137.43a5.865 5.865 0 00-.44-.097z" stroke-width=".029830319999999997"/><path d="M23.092 5.75c.007.002-.168-.421-.172-.416-.004.006.45.066.447.06a5.865 5.865 0 00-.275.357z" stroke-width=".029830319999999997"/><path d="M-23.651-18.392c.012 0-.34-.716-.346-.706-.006.01.79.064.784.053-.005-.01-.45.652-.438.653z" transform="matrix(.37007 -.15028 .14263 .43323 34.909 10.33)" stroke-width=".052"/></g></svg>